Coordinates
version=1
nRows=7
nColumns=46
inDegrees=yes

Units are S.I. units (second, meters, Newtons, ...)
Angles are in degrees.

endheader
time	pelvis_tilt	pelvis_list	pelvis_rotation	pelvis_tx	pelvis_ty	pelvis_tz	bb_angle	bb_tx	bb_ty	bb_tz	hip_flexion_r	hip_adduction_r	hip_rotation_r	knee_angle_r	knee_angle_r_beta	ankle_angle_r	subtalar_angle_r	mtp_angle_r	crank_angle_r	hip_flexion_l	hip_adduction_l	hip_rotation_l	knee_angle_l	knee_angle_l_beta	ankle_angle_l	subtalar_angle_l	mtp_angle_l	crank_angle_l	lumbar_extension	lumbar_bending	lumbar_rotation	arm_flex_r	arm_add_r	arm_rot_r	elbow_flex_r	pro_sup_r	wrist_flex_r	wrist_dev_r	arm_flex_l	arm_add_l	arm_rot_l	elbow_flex_l	pro_sup_l	wrist_flex_l	wrist_dev_l
      7.50000000	    -21.63641534	      7.86149548	      0.27037425	      0.07299603	      1.00691758	     -0.20378574	      0.00000000	      0.50000000	      0.00000000	      0.25000000	     46.18882069	    -13.17911135	     -5.11429362	     39.56075520	      0.69046543	     -7.19730112	      0.34858518	      0.00000000	      0.00000000	    109.69877850	     -2.37141494	      3.43342598	    111.65736360	      1.94878863	    -28.53372013	    -10.01057030	      0.00000000	      0.00000000	    -49.30769521	     -9.76198671	     -7.23175474	     89.33040186	     -8.98310578	     39.31653446	     38.65067700	     33.99475162	      0.00000000	      0.00000000	     89.41774487	    -14.93477883	     38.79613250	     50.77082125	     39.64072958	      0.00000000	      0.00000000
      7.50500000	    -21.90063816	      7.61999520	      0.32194990	      0.07239837	      1.00772267	     -0.20393598	      0.00000000	      0.50000000	      0.00000000	      0.25000000	     47.00408123	    -13.14958297	     -5.10681612	     41.59079848	      0.72589637	     -7.38137205	     -0.28403661	      0.00000000	      0.00000000	    109.37107740	     -2.23728579	      3.47679424	    110.35199465	      1.92600564	    -27.14415957	    -10.52175733	      0.00000000	      0.00000000	    -49.19222114	     -9.64473622	     -7.09480212	     89.36311645	     -9.06331083	     39.27713519	     38.69626551	     34.01470652	      0.00000000	      0.00000000	     89.41935900	    -14.88395655	     38.67636980	     51.01661976	     39.64397982	      0.00000000	      0.00000000
      7.51000000	    -22.51298838	      7.68709688	      0.39885342	      0.07140075	      1.00792673	     -0.20403279	      0.00000000	      0.50000000	      0.00000000	      0.25000000	     48.48778799	    -13.27249432	     -4.58826439	     43.90584202	      0.76630150	     -7.55316901	     -1.46358178	      0.00000000	      0.00000000	    109.14377442	     -2.19181146	      3.27124403	    108.77007167	      1.89839588	    -25.42955460	    -10.53151867	      0.00000000	      0.00000000	    -48.77315686	     -9.91119009	     -7.22664650	     89.34531036	     -9.28078744	     39.18377981	     38.83249216	     34.07249947	      0.00000000	      0.00000000	     89.42555709	    -14.71843964	     38.43213388	     51.43512863	     39.61372140	      0.00000000	      0.00000000
      7.51500000	    -22.78131556	      7.31469442	      0.48567498	      0.07065545	      1.00839443	     -0.20439490	      0.00000000	      0.50000000	      0.00000000	      0.25000000	     49.54900156	    -13.12793723	     -4.46291784	     46.29798162	      0.80805222	     -7.77737738	     -2.21862139	      0.00000000	      0.00000000	    108.50767852	     -2.08331834	      3.38231430	    107.23560254	      1.87161434	    -23.69332229	    -11.00300318	      0.00000000	      0.00000000	    -48.57341256	     -9.61429953	     -6.98051674	     89.38105977	     -9.35383675	     39.13648681	     38.87570491	     34.08999813	      0.00000000	      0.00000000	     89.43768516	    -14.65554254	     38.32246653	     51.59365017	     39.60167497	      0.00000000	      0.00000000
      7.52000000	    -23.38470085	      7.25378090	      0.67171158	      0.06995489	      1.00866323	     -0.20443564	      0.00000000	      0.50000000	      0.00000000	      0.25000000	     51.07087331	    -13.12874010	     -3.94129739	     48.73602349	      0.85060407	     -8.07215779	     -3.58879352	      0.00000000	      0.00000000	    107.83928385	     -2.00821632	      3.07155634	    105.36255340	      1.83892347	    -21.45256062	    -11.14260078	      0.00000000	      0.00000000	    -48.15280073	     -9.67857519	     -7.02993919	     89.35490100	     -9.56454866	     38.99098188	     39.00933045	     34.15430092	      0.00000000	      0.00000000	     89.43359197	    -14.44690876	     38.10673093	     51.84418289	     39.56902508	      0.00000000	      0.00000000
      7.52500000	    -23.68628017	      7.11225059	      0.63913573	      0.06892000	      1.00875254	     -0.20453980	      0.00000000	      0.50000000	      0.00000000	      0.25000000	     52.48344447	    -12.93060572	     -3.29662995	     51.40788106	      0.89723679	     -8.42366793	     -4.80495020	      0.00000000	      0.00000000	    106.86197045	     -2.09952517	      2.94081480	    103.46153565	      1.80574445	    -19.37683287	    -11.31371126	      0.00000000	      0.00000000	    -47.91934898	     -9.74803179	     -6.93453283	     89.36779634	     -9.72288242	     38.88433402	     39.09866753	     34.21356223	      0.00000000	      0.00000000	     89.44051996	    -14.24283944	     37.87440959	     51.94448169	     39.47559204	      0.00000000	      0.00000000
      7.53000000	    -23.97125490	      6.74501760	      0.67374099	      0.06825800	      1.00884352	     -0.20468142	      0.00000000	      0.50000000	      0.00000000	      0.25000000	     53.78197704	    -12.61570504	     -2.89513483	     54.06126036	      0.94354699	     -8.49162322	     -5.74894334	      0.00000000	      0.00000000	    105.74951859	     -2.20772878	      2.91547170	    101.42001007	      1.77011310	    -17.35525515	    -11.62309556	      0.00000000	      0.00000000	    -47.62844200	     -9.48838222	     -6.60273708	     89.37519060	     -9.78746837	     38.80708751	     39.12325463	     34.24424516	      0.00000000	      0.00000000	     89.43930546	    -14.13756105	     37.72872083	     52.00850380	     39.43322149	      0.00000000	      0.00000000
